<svg width="565" height="88" viewBox="0 0 565 88" fill="none" xmlns="http://www.w3.org/2000/svg">
<path d="M82.8526 0.207817L85.5326 0.167817H88.1026L90.4527 0.147817C92.4127 0.407817 92.4127 0.407817 94.4127 2.40782C94.6527 5.07782 94.6527 5.07782 94.6427 8.50782V12.3878L94.6026 20.8878C94.596 24.6678 94.5793 28.4412 94.5527 32.2078L94.5126 43.7578L94.4127 66.4078H109.413L109.383 60.5578L109.313 41.4778L109.263 29.8978C109.227 24.7546 109.207 19.6112 109.203 14.4678L109.193 8.50782L109.173 5.07782C109.413 2.40782 109.413 2.40782 111.413 0.407817C113.353 0.147817 113.353 0.147817 115.693 0.137817H118.243L120.913 0.157817L123.583 0.127817L126.133 0.137817H128.473C130.413 0.407817 130.413 0.407817 132.413 2.40782C132.623 5.00782 132.713 7.50782 132.713 10.1078L132.723 12.5178L132.753 20.4278L132.773 25.9178L132.783 37.4178C132.783 42.3511 132.803 47.2745 132.843 52.1878C132.869 55.9678 132.879 59.7445 132.873 63.5178C132.873 65.3312 132.883 67.1478 132.903 68.9678C132.916 71.5012 132.916 74.0345 132.903 76.5678L132.933 78.8478C132.893 82.0278 132.833 83.9178 130.713 86.3678C128.013 87.5878 126.113 87.7878 123.143 87.7978L119.963 87.8178L116.533 87.8078H113.013L105.633 87.7978C101.859 87.7845 98.0926 87.7912 94.3326 87.8178L87.1627 87.8078L83.7326 87.8178L80.5527 87.7978L77.7527 87.7878C75.4127 87.4078 75.4127 87.4078 73.6127 86.3778C71.7127 83.2578 72.0127 80.0078 72.0627 76.4578L72.0526 74.0078L72.0826 65.9878L72.0926 60.4278C72.0926 56.5478 72.106 52.6612 72.1326 48.7678C72.1593 43.7812 72.1726 38.7912 72.1726 33.7978C72.1778 24.7878 72.2045 15.7777 72.2526 6.76782C72.3226 -1.42218 75.6826 0.207817 82.8526 0.207817Z" fill="#DC504A"/>
<path d="M8.5666 0.136211L11.8266 0.116211L15.3566 0.136211H26.5266C30.3933 0.149544 34.2633 0.149544 38.1366 0.136211H55.1366C57.4166 0.396211 57.4166 0.396211 59.4166 2.39621C59.6166 5.26621 59.6966 8.02621 59.6666 10.8962L59.6866 13.2762C59.6666 19.1362 59.6666 19.1362 57.4166 21.3962C54.8366 21.5662 52.3566 21.6262 49.7766 21.5962L47.5066 21.5862L40.2866 21.5162L35.4066 21.4962L23.4066 21.3962V33.3962L26.3766 33.3362C30.0166 33.2629 33.6566 33.2095 37.2966 33.1762L42.0166 33.0962C44.2766 33.0562 46.5399 33.0229 48.8066 32.9962L50.9266 32.9462C54.0266 32.9462 56.1466 33.2462 58.8566 34.7762C61.3166 38.9162 61.0066 42.9762 60.9766 47.7062L60.9966 50.7562V57.1262C60.9833 60.3795 60.9999 63.6329 61.0466 66.8862V73.0862L61.0866 76.0262C61.0266 80.1162 60.9666 82.5962 58.6066 86.0062C53.6766 88.1462 48.9766 87.9462 43.6566 87.8862H40.2066C37.7933 87.8862 35.3866 87.8795 32.9866 87.8662C29.2933 87.8395 25.6033 87.8362 21.9166 87.8562C19.5833 87.8562 17.2466 87.8462 14.9066 87.8262L11.5566 87.8362L8.4566 87.7962L5.7166 87.7862C3.4166 87.3862 3.4166 87.3862 1.6166 86.1062C-0.443404 83.1762 0.0165959 79.7762 0.106596 76.3362L0.0965956 74.1162C0.146596 68.6662 0.146596 68.6662 2.4166 66.3962C5.0666 66.2162 7.6166 66.1662 10.2666 66.1962L12.6066 66.2062C15.0866 66.2195 17.5633 66.2395 20.0366 66.2662L25.0666 66.2962C29.1799 66.3162 33.2966 66.3495 37.4166 66.3962L36.4166 54.3962L33.4166 54.3362C28.1662 54.2333 22.9162 54.1133 17.6666 53.9762C15.3866 53.9295 13.1066 53.8729 10.8266 53.8062L8.6766 53.7762C3.6466 53.6262 3.6466 53.6262 1.4166 51.3962C1.1566 49.3062 1.1566 49.3062 1.1566 46.6962L1.1366 43.7462L1.1466 40.5462V13.2362L1.1366 10.0362L1.1566 7.08621V4.48621C1.7166 -0.113789 4.6766 0.136211 8.5666 0.136211Z" fill="#DC504A"/>
<path d="M223.658 0.136211L226.978 0.116211L230.578 0.126211H241.948C245.902 0.139544 249.848 0.139544 253.788 0.126211L268.158 0.136211H271.088C273.408 0.396211 273.408 0.396211 275.408 2.39621C275.608 5.26621 275.678 8.02621 275.658 10.8962L275.678 13.2762C275.658 19.1362 275.658 19.1362 273.418 21.3962C270.828 21.5662 268.358 21.6262 265.778 21.5962L263.498 21.5862L256.298 21.5162L251.398 21.4962L239.418 21.3962V34.3962H269.418L269.508 46.1562V48.3562L269.528 50.6262C269.418 52.3962 269.418 52.3962 268.418 53.3962C266.272 53.4762 264.122 53.5095 261.968 53.4962L258.018 53.4862L249.678 53.4462L239.418 53.3962V66.3962L242.508 66.3662C247.918 66.3086 253.328 66.2686 258.738 66.2462C261.092 66.2195 263.438 66.2029 265.778 66.1962L268.008 66.1662C269.808 66.1795 271.608 66.2562 273.408 66.3962C276.038 69.0262 275.678 70.9362 275.688 74.5162L275.658 76.8962L275.678 79.2762C275.658 85.1362 275.658 85.1362 273.418 87.3962C271.098 87.6462 271.098 87.6462 268.168 87.6562L264.848 87.6762L261.258 87.6562L257.578 87.6662L249.878 87.6562C245.925 87.6495 241.978 87.6529 238.038 87.6662H220.728C218.418 87.4062 218.418 87.4062 216.418 85.4062C216.218 82.7662 216.138 80.2262 216.158 77.5862L216.148 75.1362V49.8962C216.162 44.9029 216.162 39.9095 216.148 34.9162C216.135 29.2496 216.135 23.5829 216.148 17.9162V7.88621C216.188 1.51621 217.358 0.146211 223.658 0.136211Z" fill="#DC504A"/>
<path d="M508.117 0.136211L511.737 0.116211L515.667 0.136211H528.087C531.687 0.149544 535.287 0.149544 538.887 0.136211H559.917C562.417 0.396211 562.417 0.396211 564.417 2.39621C564.617 5.26621 564.707 8.02621 564.677 10.8962L564.697 13.2762C564.677 19.1462 564.677 19.1462 562.427 21.3962C560.457 21.6262 560.457 21.6262 558.077 21.5962L555.497 21.5662L552.797 21.5162L550.077 21.4962L543.427 21.3962L543.437 23.8162C543.507 35.1761 543.554 46.5361 543.577 57.8962C543.613 63.0395 543.633 68.1828 543.637 73.3262L543.647 79.2962L543.667 82.7262C543.427 85.3962 543.427 85.3962 541.427 87.3962C539.487 87.6562 539.487 87.6562 537.147 87.6562L534.587 87.6662L531.927 87.6462L529.257 87.6662H526.707L524.367 87.6562C522.427 87.3962 522.427 87.3962 520.427 85.3962C520.187 82.7262 520.187 82.7262 520.197 79.2962V75.4062L520.237 66.9062C520.244 63.1329 520.261 59.3595 520.287 55.5862L520.327 44.0462C520.347 36.4929 520.381 28.9429 520.427 21.3962L516.557 21.4662L511.557 21.5162L508.997 21.5662L506.557 21.5862L504.307 21.6262C502.427 21.3962 502.427 21.3962 500.427 19.3962C500.227 16.5262 500.147 13.7662 500.177 10.8962L500.147 8.51621C500.167 1.51621 501.217 0.146211 508.117 0.136211Z" fill="#DC504A"/>
<path d="M446.416 0.0327148H450.015L457.546 0.0629883C461.392 0.0829865 465.245 0.0860866 469.105 0.0727539L479.916 0.0932617L483.166 0.122559L486.025 0.133301C488.415 0.393301 488.416 0.393066 491.416 2.39307C491.716 5.04299 491.815 7.45332 491.805 10.0933L491.815 12.5132V37.4126C491.788 42.3326 491.788 47.2564 491.815 52.1831V68.9526C491.828 71.486 491.825 74.0199 491.805 76.5532L491.825 78.8433C491.785 81.713 491.725 83.873 490.215 86.3628C487.795 87.7528 486.065 87.7832 483.275 87.8032L480.095 87.8325H476.666L473.145 87.8433H465.765C461.992 87.8433 458.225 87.8597 454.465 87.8931H447.285L443.865 87.9233L440.675 87.8931H437.876C434.476 87.2131 433.375 86.2431 431.405 83.3931C431.025 80.828 430.858 78.2357 430.905 75.6431L430.885 73.2925C430.879 70.7326 430.885 68.1726 430.905 65.6128V60.2729L430.935 49.0728C430.962 44.2929 430.968 39.5097 430.955 34.7231C430.948 31.0498 430.952 27.376 430.965 23.7026V18.4028C430.965 15.9429 430.979 13.4797 431.006 11.0132L430.985 8.80322C431.025 5.98322 431.105 3.88287 432.605 1.44287C435.065 0.0128711 436.836 0.0229492 439.666 0.0229492L442.916 0.00341797L446.416 0.0327148ZM454.415 21.395V66.395H468.415V21.395H454.415Z" fill="#DC504A"/>
<path d="M195.946 0.0195312H198.856C201.936 0.469511 203.286 1.11992 205.416 3.38965C205.916 5.73965 205.916 5.74004 205.936 8.54004L205.966 11.71L205.946 15.1396L205.956 18.6602L205.936 26.0498C205.923 29.8097 205.929 33.5764 205.956 37.3496L205.946 44.5195L205.966 47.9404L205.936 51.1201L205.926 53.9199C205.256 57.1799 204.016 58.3797 201.416 60.3896C198.666 60.7396 196.316 60.86 193.586 60.79L191.316 60.7695C188.93 60.7429 186.546 60.6996 184.166 60.6396L179.307 60.5898C175.34 60.5498 171.373 60.483 167.406 60.3896L167.446 62.6602L167.546 72.7695L167.586 76.3301L167.606 79.7305L167.637 82.8701C167.417 85.39 167.416 85.3897 165.416 87.3896C163.476 87.6496 163.476 87.6502 161.137 87.6602H158.586L155.916 87.6396L153.246 87.6699L150.696 87.6602H148.356C146.416 87.3902 146.416 87.3896 144.416 85.3896C144.216 82.7598 144.136 80.2199 144.156 77.5801L144.146 75.1396V49.8896C144.16 44.9031 144.16 39.9131 144.146 34.9199C144.133 29.2533 144.133 23.5866 144.146 17.9199V7.88965C144.196 1.54004 145.346 0.150155 151.626 0.120117L154.926 0.0898438H162.166C164.726 0.0765104 167.287 0.0734115 169.847 0.0800781C173.766 0.0800769 177.687 0.0636055 181.606 0.0302734H189.066L192.626 0L195.946 0.0195312ZM167.414 21.3955V41.3955H182.414V21.3955H167.414Z" fill="#DC504A"/>
<path d="M411.053 0.0200195H413.982C416.412 0.390011 416.413 0.390033 418.223 1.68994C420.263 4.60994 419.843 8.02045 419.813 11.4604V18.8403C419.799 21.3935 419.803 23.9401 419.823 26.48L419.813 31.3296L419.833 33.6401C419.763 38.9 419.763 38.8999 418.013 41.3999C416.413 42.3998 416.413 42.3999 414.413 42.3999V44.3999L419.413 46.3999C419.493 51.5998 419.55 56.813 419.583 62.0396L419.643 67.3599L419.703 75.0103L419.753 77.4097C419.753 82.9097 419.752 82.9099 418.022 85.3599C414.943 87.3498 413.002 87.5196 409.353 87.5396L406.152 87.5601H402.692L399.152 87.5698L391.732 87.5796C387.933 87.5796 384.133 87.593 380.333 87.6196H373.133L369.673 87.6499L366.473 87.6401H363.652C361.413 87.3902 361.413 87.3898 359.413 85.3901C359.213 82.7601 359.142 80.2196 359.152 77.5796V75.1401C359.139 72.4601 359.139 69.7832 359.152 67.1099L359.143 61.5503L359.152 49.8901V34.9204C359.135 29.2539 359.132 23.5869 359.143 17.9204L359.152 10.2104V7.89014C359.182 1.52021 360.343 0.149661 366.643 0.119629L369.942 0.090332H377.203C379.77 0.0770009 382.336 0.0729251 384.902 0.0795898C388.836 0.0795898 392.77 0.0631185 396.703 0.0297852H404.163L407.743 0.000488281L411.053 0.0200195ZM382.415 66.395H397.415V53.395H382.415V66.395ZM382.415 21.395V34.395L392.475 34.4946C395.415 34.3946 395.415 34.395 396.415 33.395C396.515 30.675 396.515 30.675 396.415 21.395H382.415Z" fill="#DC504A"/>
<path d="M300.543 0.13623H311.902C315.836 0.149564 319.77 0.149564 323.703 0.13623H340.973C343.403 0.396218 343.403 0.396274 346.402 2.396C346.762 4.496 346.763 4.4967 346.743 7.1167V10.0962L346.692 13.3062V16.5962L346.593 27.0161L346.553 34.0767C346.519 39.8498 346.469 45.6229 346.402 51.396C343.193 53.1359 341.082 53.596 337.402 53.396L338.402 55.5767L342.843 65.4565L344.402 68.896C349.352 79.9758 349.352 79.9762 349.402 85.396C346.112 88.6858 341.933 87.7661 337.463 87.7661L334.683 87.8462L332.003 87.856L329.553 87.8765C327.403 87.3965 327.403 87.3958 325.783 85.7358C324.241 83.059 322.878 80.2832 321.703 77.4263L320.243 73.936L318.723 70.3267L317.183 66.6958C313.413 57.7662 313.413 57.7662 313.413 54.3862H309.413L309.442 57.1958C309.498 62.129 309.538 67.0631 309.563 71.9966C309.589 74.1296 309.607 76.266 309.613 78.4058L309.643 82.3062C309.413 85.3861 309.413 85.3864 307.413 87.3862C305.473 87.6462 305.473 87.646 303.133 87.646L300.583 87.6558L297.913 87.6362L295.243 87.6558H292.692L290.353 87.646C288.413 87.386 288.413 87.386 286.413 85.3862C286.213 82.7462 286.142 80.2059 286.152 77.5659V75.1362C286.139 72.4631 286.139 69.7899 286.152 67.1167L286.143 61.5562L286.152 49.896V34.9165C286.135 29.25 286.132 23.5831 286.143 17.9165L286.152 10.2163V7.87646C286.182 1.53654 287.343 0.146264 293.643 0.13623L296.942 0.116699L300.543 0.13623ZM309.415 21.395V35.395L312.445 35.4351L315.353 35.4487L320.255 35.4946C320.952 35.4726 321.495 35.4533 321.93 35.4292C322.425 35.4193 322.92 35.4091 323.415 35.395C323.616 35.1937 323.776 35.0318 323.905 34.8794C324.057 34.7512 324.217 34.5931 324.415 34.395C324.438 33.7224 324.453 33.2036 324.466 32.6831C324.482 32.3414 324.498 31.9375 324.515 31.4546L324.475 27.8354L324.473 27.688C324.472 27.5487 324.472 27.4052 324.471 27.2573L324.415 21.395H309.415Z" fill="#DC504A"/>
</svg>
